<svg xmlns="http://www.w3.org/2000/svg" xmlns:xlink="http://www.w3.org/1999/xlink" width="163" zoomAndPan="magnify" viewBox="0 0 122.25 30.000001" height="40" preserveAspectRatio="xMidYMid meet" version="1.0"><defs><g/><clipPath id="9744052068"><path d="M 1.609375 0 L 119.914062 0 L 119.914062 29.03125 L 1.609375 29.03125 Z M 1.609375 0 " clip-rule="nonzero"/></clipPath><clipPath id="2f447b4a6c"><path d="M 4.511719 17 L 14 17 L 14 25 L 4.511719 25 Z M 4.511719 17 " clip-rule="nonzero"/></clipPath><clipPath id="047b275b78"><path d="M 14 0 L 16 0 L 16 26.855469 L 14 26.855469 Z M 14 0 " clip-rule="nonzero"/></clipPath><clipPath id="c48d66cbeb"><path d="M 15 2 L 25.558594 2 L 25.558594 25 L 15 25 Z M 15 2 " clip-rule="nonzero"/></clipPath></defs><g clip-path="url(#9744052068)"><path fill="#ffffff" d="M 1.609375 0 L 119.914062 0 L 119.914062 29.03125 L 1.609375 29.03125 Z M 1.609375 0 " fill-opacity="1" fill-rule="nonzero"/><path fill="#fdfdfd" d="M 1.609375 0 L 119.914062 0 L 119.914062 29.03125 L 1.609375 29.03125 Z M 1.609375 0 " fill-opacity="1" fill-rule="nonzero"/></g><path fill="#a44f30" d="M 13.488281 14.710938 L 13.488281 11.109375 C 11.191406 10.800781 9.3125 10.253906 9.3125 8.558594 C 9.3125 7.042969 10.667969 5.84375 13.488281 5.800781 L 13.488281 2.386719 C 9.648438 2.425781 5.4375 4.179688 5.4375 8.441406 C 5.4375 13.042969 9.28125 14.199219 13.488281 14.710938 Z M 13.488281 14.710938 " fill-opacity="1" fill-rule="nonzero"/><g clip-path="url(#2f447b4a6c)"><path fill="#a44f30" d="M 13.488281 20.898438 C 11.019531 20.851562 8.695312 19.839844 7.792969 17.605469 L 4.511719 19.296875 C 6.046875 23.058594 9.28125 24.375 13.488281 24.402344 Z M 13.488281 20.898438 " fill-opacity="1" fill-rule="nonzero"/></g><g clip-path="url(#047b275b78)"><path fill="#a44f30" d="M 14.355469 0.00390625 L 15.222656 0.00390625 L 15.222656 26.851562 L 14.355469 26.851562 Z M 14.355469 0.00390625 " fill-opacity="1" fill-rule="nonzero"/></g><g clip-path="url(#c48d66cbeb)"><path fill="#ffde59" d="M 21.410156 2.429688 L 21.410156 11.726562 L 15.824219 11.726562 L 15.824219 15.570312 L 21.410156 15.570312 L 21.410156 24.488281 L 25.558594 24.488281 L 25.558594 2.429688 Z M 21.410156 2.429688 " fill-opacity="1" fill-rule="nonzero"/></g><g fill="#ffde59" fill-opacity="1"><g transform="translate(13.893202, 16.666931)"><g/></g></g><g fill="#ffde59" fill-opacity="1"><g transform="translate(15.765808, 16.666931)"><g/></g></g><g fill="#ffde59" fill-opacity="1"><g transform="translate(17.638414, 16.666931)"><g/></g></g><g fill="#ffde59" fill-opacity="1"><g transform="translate(19.51102, 16.666931)"><g/></g></g><g fill="#ffde59" fill-opacity="1"><g transform="translate(21.383626, 16.666931)"><g/></g></g><g fill="#ffde59" fill-opacity="1"><g transform="translate(23.256231, 16.666931)"><g/></g></g><g fill="#ffde59" fill-opacity="1"><g transform="translate(25.128837, 16.666931)"><g/></g></g><g fill="#ffde59" fill-opacity="1"><g transform="translate(27.002039, 16.666931)"><g><path d="M 7.8125 0 L 5.59375 0 L 5.59375 -2.140625 L 2.8125 -2.140625 L 2.8125 0 L 0.59375 0 L 0.59375 -5.28125 L 2.8125 -5.28125 L 2.8125 -3.15625 L 5.59375 -3.15625 L 5.59375 -5.28125 L 7.8125 -5.28125 Z M 7.8125 0 "/></g></g></g><g fill="#ffde59" fill-opacity="1"><g transform="translate(35.406648, 16.666931)"><g><path d="M 4 0.109375 C 2.6875 0.109375 1.722656 -0.15625 1.109375 -0.6875 C 0.566406 -1.164062 0.296875 -1.816406 0.296875 -2.640625 C 0.296875 -3.460938 0.566406 -4.113281 1.109375 -4.59375 C 1.722656 -5.125 2.6875 -5.390625 4 -5.390625 C 5.300781 -5.390625 6.265625 -5.125 6.890625 -4.59375 C 7.429688 -4.113281 7.703125 -3.460938 7.703125 -2.640625 C 7.703125 -1.816406 7.429688 -1.164062 6.890625 -0.6875 C 6.265625 -0.15625 5.300781 0.109375 4 0.109375 Z M 4 -1.296875 C 4.53125 -1.296875 4.921875 -1.453125 5.171875 -1.765625 C 5.378906 -2.015625 5.484375 -2.304688 5.484375 -2.640625 C 5.484375 -2.972656 5.378906 -3.265625 5.171875 -3.515625 C 4.921875 -3.828125 4.53125 -3.984375 4 -3.984375 C 3.457031 -3.984375 3.0625 -3.828125 2.8125 -3.515625 C 2.613281 -3.265625 2.515625 -2.972656 2.515625 -2.640625 C 2.515625 -2.304688 2.613281 -2.015625 2.8125 -1.765625 C 3.0625 -1.453125 3.457031 -1.296875 4 -1.296875 Z M 4 -1.296875 "/></g></g></g><g fill="#ffde59" fill-opacity="1"><g transform="translate(43.405771, 16.666931)"><g><path d="M 4.515625 0 L 2.296875 0 L 2.296875 -3.984375 L 0.21875 -3.984375 L 0.21875 -5.28125 L 6.578125 -5.28125 L 6.578125 -3.984375 L 4.515625 -3.984375 Z M 4.515625 0 "/></g></g></g><g fill="#ffde59" fill-opacity="1"><g transform="translate(50.210556, 16.666931)"><g><path d="M 6.953125 0 L 0.59375 0 L 0.59375 -5.28125 L 6.671875 -5.28125 L 6.671875 -3.984375 L 2.8125 -3.984375 L 2.8125 -3.15625 L 6.0625 -3.15625 L 6.0625 -2.140625 L 2.8125 -2.140625 L 2.8125 -1.3125 L 6.953125 -1.3125 Z M 6.953125 0 "/></g></g></g><g fill="#ffde59" fill-opacity="1"><g transform="translate(57.46506, 16.666931)"><g><path d="M 6.765625 0 L 0.59375 0 L 0.59375 -5.28125 L 2.8125 -5.28125 L 2.8125 -1.3125 L 6.765625 -1.3125 Z M 6.765625 0 "/></g></g></g><g fill="#ffde59" fill-opacity="1"><g transform="translate(64.376986, 16.666931)"><g/></g></g><g fill="#ffde59" fill-opacity="1"><g transform="translate(66.249592, 16.666931)"><g/></g></g><g fill="#a44f30" fill-opacity="1"><g transform="translate(68.124083, 16.666931)"><g><path d="M 3.5 0.109375 C 2.78125 0.109375 2.203125 0.0351562 1.765625 -0.109375 C 1.328125 -0.265625 0.992188 -0.476562 0.765625 -0.75 C 0.535156 -1.019531 0.382812 -1.332031 0.3125 -1.6875 L 2.65625 -1.6875 C 2.832031 -1.425781 3.113281 -1.296875 3.5 -1.296875 C 3.875 -1.296875 4.148438 -1.425781 4.328125 -1.6875 C 4.335938 -1.707031 4.34375 -1.726562 4.34375 -1.75 C 4.34375 -1.8125 4.253906 -1.859375 4.078125 -1.890625 C 3.910156 -1.929688 3.648438 -1.957031 3.296875 -1.96875 C 2.859375 -1.988281 2.394531 -2.035156 1.90625 -2.109375 C 0.832031 -2.273438 0.296875 -2.707031 0.296875 -3.40625 C 0.296875 -3.46875 0.300781 -3.53125 0.3125 -3.59375 C 0.382812 -3.945312 0.535156 -4.257812 0.765625 -4.53125 C 0.992188 -4.800781 1.328125 -5.007812 1.765625 -5.15625 C 2.203125 -5.3125 2.78125 -5.390625 3.5 -5.390625 C 4.207031 -5.390625 4.78125 -5.3125 5.21875 -5.15625 C 5.65625 -5.007812 5.988281 -4.800781 6.21875 -4.53125 C 6.445312 -4.257812 6.601562 -3.945312 6.6875 -3.59375 L 4.328125 -3.59375 C 4.148438 -3.84375 3.875 -3.96875 3.5 -3.96875 C 3.113281 -3.96875 2.832031 -3.84375 2.65625 -3.59375 C 2.644531 -3.582031 2.640625 -3.566406 2.640625 -3.546875 C 2.640625 -3.484375 2.722656 -3.4375 2.890625 -3.40625 C 3.054688 -3.382812 3.300781 -3.363281 3.625 -3.34375 C 3.957031 -3.320312 4.3125 -3.289062 4.6875 -3.25 C 5.0625 -3.207031 5.410156 -3.128906 5.734375 -3.015625 C 6.054688 -2.910156 6.304688 -2.75 6.484375 -2.53125 C 6.628906 -2.363281 6.703125 -2.15625 6.703125 -1.90625 C 6.703125 -1.832031 6.695312 -1.757812 6.6875 -1.6875 C 6.601562 -1.332031 6.445312 -1.019531 6.21875 -0.75 C 5.988281 -0.476562 5.65625 -0.265625 5.21875 -0.109375 C 4.78125 0.0351562 4.207031 0.109375 3.5 0.109375 Z M 3.5 0.109375 "/></g></g></g><g fill="#a44f30" fill-opacity="1"><g transform="translate(75.120552, 16.666931)"><g><path d="M 4 0.109375 C 2.6875 0.109375 1.722656 -0.15625 1.109375 -0.6875 C 0.566406 -1.164062 0.296875 -1.816406 0.296875 -2.640625 C 0.296875 -3.460938 0.566406 -4.113281 1.109375 -4.59375 C 1.722656 -5.125 2.6875 -5.390625 4 -5.390625 C 5.300781 -5.390625 6.265625 -5.125 6.890625 -4.59375 C 7.429688 -4.113281 7.703125 -3.460938 7.703125 -2.640625 C 7.703125 -1.816406 7.429688 -1.164062 6.890625 -0.6875 C 6.265625 -0.15625 5.300781 0.109375 4 0.109375 Z M 4 -1.296875 C 4.53125 -1.296875 4.921875 -1.453125 5.171875 -1.765625 C 5.378906 -2.015625 5.484375 -2.304688 5.484375 -2.640625 C 5.484375 -2.972656 5.378906 -3.265625 5.171875 -3.515625 C 4.921875 -3.828125 4.53125 -3.984375 4 -3.984375 C 3.457031 -3.984375 3.0625 -3.828125 2.8125 -3.515625 C 2.613281 -3.265625 2.515625 -2.972656 2.515625 -2.640625 C 2.515625 -2.304688 2.613281 -2.015625 2.8125 -1.765625 C 3.0625 -1.453125 3.457031 -1.296875 4 -1.296875 Z M 4 -1.296875 "/></g></g></g><g fill="#a44f30" fill-opacity="1"><g transform="translate(83.119675, 16.666931)"><g><path d="M 10.640625 0 L 8.421875 0 L 8.421875 -3.375 L 6.4375 0 L 4.78125 0 L 2.8125 -3.375 L 2.8125 0 L 0.59375 0 L 0.59375 -5.28125 L 3.21875 -5.28125 L 5.609375 -1.515625 L 8 -5.28125 L 10.640625 -5.28125 Z M 10.640625 0 "/></g></g></g><g fill="#a44f30" fill-opacity="1"><g transform="translate(94.355311, 16.666931)"><g><path d="M 7.8125 0 L 5.71875 0 C 5.613281 -0.132812 5.546875 -0.304688 5.515625 -0.515625 C 5.472656 -0.671875 5.414062 -0.820312 5.34375 -0.96875 C 5.28125 -1.125 5.164062 -1.253906 5 -1.359375 C 4.832031 -1.460938 4.582031 -1.519531 4.25 -1.53125 L 2.8125 -1.53125 L 2.8125 0 L 0.59375 0 L 0.59375 -5.28125 L 4.203125 -5.28125 C 5.054688 -5.28125 5.75 -5.21875 6.28125 -5.09375 C 6.8125 -4.96875 7.195312 -4.765625 7.4375 -4.484375 C 7.6875 -4.210938 7.8125 -3.851562 7.8125 -3.40625 C 7.8125 -3.03125 7.722656 -2.71875 7.546875 -2.46875 C 7.378906 -2.21875 7.117188 -2.019531 6.765625 -1.875 C 7.109375 -1.726562 7.332031 -1.550781 7.4375 -1.34375 C 7.539062 -1.144531 7.609375 -0.921875 7.640625 -0.671875 C 7.660156 -0.460938 7.71875 -0.238281 7.8125 0 Z M 2.8125 -2.828125 L 4.078125 -2.828125 C 4.429688 -2.828125 4.707031 -2.84375 4.90625 -2.875 C 5.113281 -2.90625 5.265625 -2.945312 5.359375 -3 C 5.460938 -3.0625 5.523438 -3.125 5.546875 -3.1875 C 5.578125 -3.257812 5.59375 -3.332031 5.59375 -3.40625 C 5.59375 -3.476562 5.578125 -3.546875 5.546875 -3.609375 C 5.523438 -3.679688 5.460938 -3.742188 5.359375 -3.796875 C 5.265625 -3.859375 5.113281 -3.90625 4.90625 -3.9375 C 4.707031 -3.96875 4.429688 -3.984375 4.078125 -3.984375 L 2.8125 -3.984375 Z M 2.8125 -2.828125 "/></g></g></g><g fill="#a44f30" fill-opacity="1"><g transform="translate(102.461336, 16.666931)"><g><path d="M 8.875 0 L 6.640625 0 L 6.140625 -0.859375 L 2.796875 -0.859375 L 2.296875 0 L 0.0625 0 L 3.4375 -5.28125 L 5.5 -5.28125 Z M 5.390625 -2.171875 L 4.46875 -3.78125 L 3.546875 -2.171875 Z M 5.390625 -2.171875 "/></g></g></g><g fill="#a44f30" fill-opacity="1"><g transform="translate(111.400452, 16.666931)"><g><path d="M 3.5 0.109375 C 2.78125 0.109375 2.203125 0.0351562 1.765625 -0.109375 C 1.328125 -0.265625 0.992188 -0.476562 0.765625 -0.75 C 0.535156 -1.019531 0.382812 -1.332031 0.3125 -1.6875 L 2.65625 -1.6875 C 2.832031 -1.425781 3.113281 -1.296875 3.5 -1.296875 C 3.875 -1.296875 4.148438 -1.425781 4.328125 -1.6875 C 4.335938 -1.707031 4.34375 -1.726562 4.34375 -1.75 C 4.34375 -1.8125 4.253906 -1.859375 4.078125 -1.890625 C 3.910156 -1.929688 3.648438 -1.957031 3.296875 -1.96875 C 2.859375 -1.988281 2.394531 -2.035156 1.90625 -2.109375 C 0.832031 -2.273438 0.296875 -2.707031 0.296875 -3.40625 C 0.296875 -3.46875 0.300781 -3.53125 0.3125 -3.59375 C 0.382812 -3.945312 0.535156 -4.257812 0.765625 -4.53125 C 0.992188 -4.800781 1.328125 -5.007812 1.765625 -5.15625 C 2.203125 -5.3125 2.78125 -5.390625 3.5 -5.390625 C 4.207031 -5.390625 4.78125 -5.3125 5.21875 -5.15625 C 5.65625 -5.007812 5.988281 -4.800781 6.21875 -4.53125 C 6.445312 -4.257812 6.601562 -3.945312 6.6875 -3.59375 L 4.328125 -3.59375 C 4.148438 -3.84375 3.875 -3.96875 3.5 -3.96875 C 3.113281 -3.96875 2.832031 -3.84375 2.65625 -3.59375 C 2.644531 -3.582031 2.640625 -3.566406 2.640625 -3.546875 C 2.640625 -3.484375 2.722656 -3.4375 2.890625 -3.40625 C 3.054688 -3.382812 3.300781 -3.363281 3.625 -3.34375 C 3.957031 -3.320312 4.3125 -3.289062 4.6875 -3.25 C 5.0625 -3.207031 5.410156 -3.128906 5.734375 -3.015625 C 6.054688 -2.910156 6.304688 -2.75 6.484375 -2.53125 C 6.628906 -2.363281 6.703125 -2.15625 6.703125 -1.90625 C 6.703125 -1.832031 6.695312 -1.757812 6.6875 -1.6875 C 6.601562 -1.332031 6.445312 -1.019531 6.21875 -0.75 C 5.988281 -0.476562 5.65625 -0.265625 5.21875 -0.109375 C 4.78125 0.0351562 4.207031 0.109375 3.5 0.109375 Z M 3.5 0.109375 "/></g></g></g></svg>